<svg width="52" height="53" viewBox="0 0 52 53" fill="none" xmlns="http://www.w3.org/2000/svg">
<path fill-rule="evenodd" clip-rule="evenodd" d="M31.3452 7.11896C31.3452 7.72424 30.8696 8.19983 30.2643 8.19983C29.659 8.19983 29.1835 7.72424 29.1835 7.11896C29.1835 6.51367 29.659 6.03809 30.2643 6.03809C30.8696 6.03809 31.3452 6.51367 31.3452 7.11896ZM12.9704 11.4424C11.7814 11.4424 10.8087 12.4152 10.8087 13.6042C10.8087 14.7931 11.7814 15.7659 12.9704 15.7659C14.1593 15.7659 15.1321 14.7931 15.1321 13.6042C15.1321 12.4152 14.1593 11.4424 12.9704 11.4424ZM12.9704 20.0894C11.7814 20.0894 10.8087 21.0622 10.8087 22.2511C10.8087 23.4401 11.7814 24.4129 12.9704 24.4129C14.1593 24.4129 15.1321 23.4401 15.1321 22.2511C15.1321 21.0622 14.1593 20.0894 12.9704 20.0894ZM10.8087 30.8981C10.8087 29.7092 11.7814 28.7364 12.9704 28.7364C14.1593 28.7364 15.1321 29.7092 15.1321 30.8981C15.1321 32.0871 14.1593 33.0599 12.9704 33.0599C11.7814 33.0599 10.8087 32.0871 10.8087 30.8981ZM10.8087 39.5451C10.8087 38.3561 11.7814 37.3833 12.9704 37.3833C14.1593 37.3833 15.1321 38.3561 15.1321 39.5451C15.1321 40.734 14.1593 41.7068 12.9704 41.7068C11.7814 41.7068 10.8087 40.734 10.8087 39.5451ZM5.4043 22.2511C5.4043 21.6459 5.87988 21.1703 6.48517 21.1703C7.09046 21.1703 7.56604 21.6459 7.56604 22.2511C7.56604 22.8564 7.09046 23.332 6.48517 23.332C5.87988 23.332 5.4043 22.8564 5.4043 22.2511ZM46.4774 22.2511C46.4774 22.8564 46.0018 23.332 45.3965 23.332C44.7912 23.332 44.3156 22.8564 44.3156 22.2511C44.3156 21.6459 44.7912 21.1703 45.3965 21.1703C46.0018 21.1703 46.4774 21.6459 46.4774 22.2511ZM30.2643 15.7659C31.4533 15.7659 32.4261 14.7931 32.4261 13.6042C32.4261 12.4152 31.4533 11.4424 30.2643 11.4424C29.0754 11.4424 28.1026 12.4152 28.1026 13.6042C28.1026 14.7931 29.0754 15.7659 30.2643 15.7659ZM6.48517 29.8172C5.87988 29.8172 5.4043 30.2928 5.4043 30.8981C5.4043 31.5034 5.87988 31.979 6.48517 31.979C7.09046 31.979 7.56604 31.5034 7.56604 30.8981C7.56604 30.2928 7.09046 29.8172 6.48517 29.8172ZM20.5365 46.0303C20.5365 45.425 21.0121 44.9494 21.6174 44.9494C22.2226 44.9494 22.6982 45.425 22.6982 46.0303C22.6982 46.6356 22.2226 47.1112 21.6174 47.1112C21.0121 47.1112 20.5365 46.6356 20.5365 46.0303ZM21.6174 8.19983C22.2226 8.19983 22.6982 7.72424 22.6982 7.11896C22.6982 6.51367 22.2226 6.03809 21.6174 6.03809C21.0121 6.03809 20.5365 6.51367 20.5365 7.11896C20.5365 7.72424 21.0121 8.19983 21.6174 8.19983ZM23.7791 13.6042C23.7791 14.7931 22.8063 15.7659 21.6174 15.7659C20.4284 15.7659 19.4556 14.7931 19.4556 13.6042C19.4556 12.4152 20.4284 11.4424 21.6174 11.4424C22.8063 11.4424 23.7791 12.4152 23.7791 13.6042ZM21.6174 27.6555C19.8231 27.6555 18.3747 29.1039 18.3747 30.8981C18.3747 32.6924 19.8231 34.1407 21.6174 34.1407C23.4116 34.1407 24.86 32.6924 24.86 30.8981C24.86 29.1039 23.4116 27.6555 21.6174 27.6555ZM36.7495 30.8981C36.7495 29.7092 37.7223 28.7364 38.9113 28.7364C40.1002 28.7364 41.073 29.7092 41.073 30.8981C41.073 32.0871 40.1002 33.0599 38.9113 33.0599C37.7223 33.0599 36.7495 32.0871 36.7495 30.8981ZM38.9113 37.3833C37.7223 37.3833 36.7495 38.3561 36.7495 39.5451C36.7495 40.734 37.7223 41.7068 38.9113 41.7068C40.1002 41.7068 41.073 40.734 41.073 39.5451C41.073 38.3561 40.1002 37.3833 38.9113 37.3833ZM36.7495 22.2511C36.7495 21.0622 37.7223 20.0894 38.9113 20.0894C40.1002 20.0894 41.073 21.0622 41.073 22.2511C41.073 23.4401 40.1002 24.4129 38.9113 24.4129C37.7223 24.4129 36.7495 23.4401 36.7495 22.2511ZM38.9113 11.4424C37.7223 11.4424 36.7495 12.4152 36.7495 13.6042C36.7495 14.7931 37.7223 15.7659 38.9113 15.7659C40.1002 15.7659 41.073 14.7931 41.073 13.6042C41.073 12.4152 40.1002 11.4424 38.9113 11.4424ZM44.3156 30.8981C44.3156 30.2928 44.7912 29.8172 45.3965 29.8172C46.0018 29.8172 46.4774 30.2928 46.4774 30.8981C46.4774 31.5034 46.0018 31.979 45.3965 31.979C44.7912 31.979 44.3156 31.5034 44.3156 30.8981ZM30.2643 37.3833C29.0754 37.3833 28.1026 38.3561 28.1026 39.5451C28.1026 40.734 29.0754 41.7068 30.2643 41.7068C31.4533 41.7068 32.4261 40.734 32.4261 39.5451C32.4261 38.3561 31.4533 37.3833 30.2643 37.3833ZM29.1835 46.0303C29.1835 45.425 29.659 44.9494 30.2643 44.9494C30.8696 44.9494 31.3452 45.425 31.3452 46.0303C31.3452 46.6356 30.8696 47.1112 30.2643 47.1112C29.659 47.1112 29.1835 46.6356 29.1835 46.0303ZM21.6174 19.0085C19.8231 19.0085 18.3747 20.4569 18.3747 22.2511C18.3747 24.0454 19.8231 25.4938 21.6174 25.4938C23.4116 25.4938 24.86 24.0454 24.86 22.2511C24.86 20.4569 23.4116 19.0085 21.6174 19.0085ZM19.4556 39.5451C19.4556 38.3561 20.4284 37.3833 21.6174 37.3833C22.8063 37.3833 23.7791 38.3561 23.7791 39.5451C23.7791 40.734 22.8063 41.7068 21.6174 41.7068C20.4284 41.7068 19.4556 40.734 19.4556 39.5451ZM30.2643 27.6555C28.4701 27.6555 27.0217 29.1039 27.0217 30.8981C27.0217 32.6924 28.4701 34.1407 30.2643 34.1407C32.0586 34.1407 33.5069 32.6924 33.5069 30.8981C33.5069 29.1039 32.0586 27.6555 30.2643 27.6555ZM27.0217 22.2511C27.0217 20.4569 28.4701 19.0085 30.2643 19.0085C32.0586 19.0085 33.5069 20.4569 33.5069 22.2511C33.5069 24.0454 32.0586 25.4938 30.2643 25.4938C28.4701 25.4938 27.0217 24.0454 27.0217 22.2511Z" fill="#A9A9A9"/>
</svg>
